Coordinates
version=1
nRows=22
nColumns=24
inDegrees=yes

Units are S.I. units (second, meters, Newtons, ...)
Angles are in degrees.

endheader
time	pelvis_tilt	pelvis_list	pelvis_rotation	pelvis_tx	pelvis_ty	pelvis_tz	hip_flexion_r	hip_adduction_r	hip_rotation_r	knee_angle_r	ankle_angle_r	subtalar_angle_r	mtp_angle_r	hip_flexion_l	hip_adduction_l	hip_rotation_l	knee_angle_l	ankle_angle_l	subtalar_angle_l	mtp_angle_l	lumbar_extension	lumbar_bending	lumbar_rotation
      0.72416667	      7.80157943	     -5.07740884	      3.28186723	     -0.39481810	      1.01249063	      0.31003082	      1.30161614	     10.63034237	     -0.32675115	    -14.91926058	      3.82624494	    -15.42651120	     -6.12579742	     11.75419806	     -6.03679096	      0.93803304	    -70.08684056	     -8.98700837	    -10.17115023	      1.71825638	     -9.57148489	      9.14034066	      2.59862262
      0.72833333	      7.84373764	     -4.93047165	      3.23752239	     -0.38961334	      1.01340951	      0.31026085	      0.68586767	     10.48738822	     -0.30311141	    -14.49602955	      3.91228202	    -15.17750762	     -6.13896322	     12.29913286	     -5.81354301	      0.97191243	    -69.88986064	     -8.43375325	    -10.39946828	      1.63812503	     -9.65697278	      8.97041496	      2.75187834
      0.73250000	      7.81365202	     -4.79536272	      3.18064015	     -0.38442409	      1.01420035	      0.31050071	      0.16129467	     10.35702243	     -0.24164136	    -14.09953529	      4.01709276	    -15.07998262	     -6.14083150	     12.91098864	     -5.59771246	      1.00145860	    -69.64094726	     -7.86450144	    -10.63625372	      1.62245517	     -9.64732306	      8.81745434	      2.80739963
      0.73666667	      7.87113027	     -4.64353797	      3.09852593	     -0.37922179	      1.01509632	      0.31077485	     -0.46743871	     10.20731293	     -0.18255901	    -13.68702087	      4.07544760	    -14.86091929	     -6.15566498	     13.38489139	     -5.38635025	      0.97523203	    -69.30218570	     -7.26309515	    -10.82164692	      1.54229661	     -9.76531759	      8.61575974	      2.98735691
      0.74083333	      7.89172107	     -4.48635627	      3.00624131	     -0.37402607	      1.01590523	      0.31104038	     -1.04494563	     10.04689062	     -0.11561247	    -13.30031093	      4.17124829	    -14.67500160	     -6.17094798	     13.87911415	     -5.16447553	      0.94244209	    -68.89940528	     -6.67338203	    -11.00281207	      1.45741303	     -9.82766490	      8.42200164	      3.13571896
      0.74500000	      7.85473281	     -4.34923874	      2.90930558	     -0.36885917	      1.01658429	      0.31130124	     -1.54738047	      9.90633249	     -0.02255214	    -12.93308756	      4.26647269	    -14.56255614	     -6.17534438	     14.42778088	     -4.95722038	      0.91792388	    -68.45168676	     -6.07533680	    -11.18882437	      1.43096342	     -9.83085061	      8.25785806	      3.21031918
      0.74916667	      7.86265745	     -4.20764580	      2.78618862	     -0.36366186	      1.01728393	      0.31160714	     -2.10434526	      9.75779028	      0.06911667	    -12.55805137	      4.34764667	    -14.39528590	     -6.18501581	     14.89198170	     -4.77474609	      0.83394029	    -67.92915144	     -5.45254321	    -11.30478285	      1.38150353	     -9.87483435	      8.05860567	      3.36537821
      0.75333333	      7.83776993	     -4.06622866	      2.67515894	     -0.35851092	      1.01790063	      0.31186661	     -2.62100276	      9.60866000	      0.18792667	    -12.18592294	      4.44968516	    -14.24781040	     -6.19127706	     15.38114255	     -4.56878254	      0.78993232	    -67.35180802	     -4.86253682	    -11.42868508	      1.34648318	     -9.90908703	      7.88605529	      3.49104519
      0.75750000	      7.87810589	     -3.91223301	      2.52426771	     -0.35329886	      1.01858596	      0.31217801	     -3.21185795	      9.43781002	      0.28520422	    -11.81616712	      4.54249965	    -14.04120707	     -6.20616190	     15.74918544	     -4.38593596	      0.66384643	    -66.68216914	     -4.25796248	    -11.48098616	      1.27391136	     -9.97886463	      7.69199072	      3.71438963
      0.76166667	      7.89877169	     -3.77935582	      2.39955398	     -0.34812142	      1.01916961	      0.31245125	     -3.78211952	      9.29174075	      0.39241571	    -11.43409702	      4.65257051	    -13.83097643	     -6.22766931	     16.13753400	     -4.21141986	      0.58259628	    -65.97670763	     -3.68320254	    -11.52879988	      1.17016472	    -10.05248591	      7.51727518	      3.93954130
      0.76583333	      7.85322557	     -3.64715124	      2.23751029	     -0.34296114	      1.01961969	      0.31274379	     -4.25256542	      9.13696782	      0.51922290	    -11.10867965	      4.74415381	    -13.68623246	     -6.24013966	     16.57391569	     -4.04168496	      0.46574786	    -65.21652579	     -3.08711482	    -11.60417767	      1.11025359	    -10.04390628	      7.35426542	      4.05590002
      0.77000000	      7.85133290	     -3.51916697	      2.08083227	     -0.33779040	      1.02008307	      0.31302399	     -4.78260441	      8.98659180	      0.65122032	    -10.75649500	      4.84222280	    -13.52190550	     -6.25336817	     16.93878811	     -3.88296447	      0.34566951	    -64.39344636	     -2.50943428	    -11.62951559	      1.04576409	    -10.08648685	      7.18801232	      4.21392462
      0.77416667	      7.85965578	     -3.41325540	      1.94085072	     -0.33261499	      1.02047842	      0.31330099	     -5.33276653	      8.86107719	      0.77151562	    -10.37828558	      4.95118864	    -13.32765391	     -6.27967570	     17.28372578	     -3.75580654	      0.23454722	    -63.53174953	     -1.96083636	    -11.60938047	      0.92385476	    -10.14345993	      7.03715100	      4.45741264
      0.77833333	      7.83108826	     -3.28859497	      1.76185711	     -0.32746510	      1.02081136	      0.31358018	     -5.81560028	      8.70519816	      0.92054504	    -10.05649175	      5.03856502	    -13.18738602	     -6.29519733	     17.63201249	     -3.60409100	      0.09447268	    -62.59458550	     -1.41956630	    -11.63747045	      0.85123058	    -10.16007924	      6.88416447	      4.57256301
      0.78250000	      7.82043667	     -3.19044156	      1.59857030	     -0.32230460	      1.02108147	      0.31384832	     -6.32827114	      8.57901618	      1.06437392	     -9.70772392	      5.13134241	    -13.03348955	     -6.31343081	     17.95140410	     -3.48932375	     -0.03971894	    -61.62237570	     -0.89854291	    -11.61665285	      0.76604514	    -10.19436522	      6.75152858	      4.73521375
      0.78666667	      7.79739747	     -3.08985945	      1.43586594	     -0.31714162	      1.02128915	      0.31410068	     -6.82275741	      8.44727925	      1.20708765	     -9.36674074	      5.22549004	    -12.88835479	     -6.33107557	     18.26144374	     -3.36767722	     -0.16907298	    -60.59411573	     -0.41046436	    -11.59794140	      0.68295832	    -10.21871060	      6.61743278	      4.88606725
      0.79083333	      7.80195724	     -3.00908664	      1.28993358	     -0.31196364	      1.02146873	      0.31435060	     -7.36003902	      8.33901608	      1.32849538	     -8.99342739	      5.32577763	    -12.74162024	     -6.35933406	     18.52852942	     -3.27741550	     -0.29953696	    -59.52501880	      0.03677870	    -11.55602742	      0.55610261	    -10.26326247	      6.49250210	      5.07989856
      0.79500000	      7.75870193	     -2.92430833	      1.11831824	     -0.30681204	      1.02153835	      0.31458204	     -7.81926563	      8.21699894	      1.47926645	     -8.67244607	      5.41097653	    -12.61404921	     -6.38303951	     18.82035965	     -3.17424825	     -0.43437698	    -58.39816099	      0.46799746	    -11.52187836	      0.45028256	    -10.26559956	      6.38689439	      5.20966154
      0.79916667	      7.74266976	     -2.84440780	      0.96027104	     -0.30164452	      1.02159146	      0.31481108	     -8.31865295	      8.10281406	      1.62252890	     -8.32794045	      5.50259304	    -12.49344998	     -6.40664269	     19.06240613	     -3.07908268	     -0.56292912	    -57.22390340	      0.87087132	    -11.47581150	      0.34632725	    -10.29747943	      6.27816572	      5.33921678
      0.80333333	      7.73869244	     -2.78435576	      0.83249430	     -0.29646823	      1.02159837	      0.31499539	     -8.84440805	      8.01260035	      1.74518158	     -7.94957633	      5.59769043	    -12.38809259	     -6.45510454	     19.28032571	     -2.99864129	     -0.66290928	    -56.01097282	      1.22905930	    -11.41517646	      0.15107147	    -10.34297395	      6.19603687	      5.52807391
      0.80750000	      7.66114074	     -2.71897689	      0.67132641	     -0.29130464	      1.02145133	      0.31519715	     -9.25464544	      7.90781404	      1.87743688	     -7.64495687	      5.68944377	    -12.29253640	     -6.47800621	     19.55349204	     -2.91809514	     -0.79312089	    -54.75100491	      1.56275679	    -11.36157909	      0.05691041	    -10.29846672	      6.10141397	      5.59060618
      0.81166667	      7.62999981	     -2.65924120	      0.53292385	     -0.28612425	      1.02132795	      0.31537662	     -9.73436652	      7.81236975	      1.99206773	     -7.29754073	      5.78510379	    -12.20288432	     -6.50653322	     19.75412183	     -2.84198343	     -0.90832671	    -53.44007476	      1.86195667	    -11.29181837	     -0.05444030	    -10.30699032	      6.01472596	      5.69426747
